<?xml version="1.0" encoding="utf-8"?>
<!-- Generator: Adobe Illustrator 23.0.3, SVG Export Plug-In . SVG Version: 6.00 Build 0)  -->
<svg version="1.1" id="Layer_1" xmlns="http://www.w3.org/2000/svg" xmlns:xlink="http://www.w3.org/1999/xlink" x="0px" y="0px"
	 viewBox="0 0 175.5 175.5" style="enable-background:new 0 0 175.5 175.5;" xml:space="preserve">
<style type="text/css">
	.ag-st0{fill:#E05587;}
</style>
<g>
	<path class="ag-st0" d="M50.8,87.5c0-12.8-9.6-22.4-22.4-22.4c-11.2,0-22.4,9.6-22.4,22.4s9.6,22.4,22.4,22.4
		C41.2,109.8,50.8,100.2,50.8,87.5z M22,87.5c0-4.8,3.2-8,6.4-8c3.2,0,8,3.2,8,8c0,3.2-3.2,6.4-8,6.4C25.2,93.8,22,90.7,22,87.5z"/>
	<path class="ag-st0" d="M52.4,121l16,16c-1.6,1.6-3.2,4.8-3.2,9.6c0,12.8,9.6,22.4,22.4,22.4c12.8,0,22.4-9.6,22.4-22.4
		c0-4.8-1.6-8-3.2-11.2l16-16c1.6-1.6,1.6-6.4,0-8c-1.6-3.2-6.4-3.2-8,0l-16,16c-3.2-3.2-6.4-3.2-11.2-3.2c-4.8,0-8,1.6-11.2,3.2
		l-16-16c-1.6-3.2-4.8-3.2-8,0C50.8,113,50.8,117.8,52.4,121z M87.5,137c4.8,0,8,3.2,8,8s-3.2,8-8,8c-4.8,0-8-3.2-8-8
		S82.7,137,87.5,137z"/>
	<path class="ag-st0" d="M52.4,63.5c3.2,1.6,6.4,1.6,9.6,0l16-16c3.2,1.6,6.4,3.2,11.2,3.2c4.8,0,8-1.6,11.2-3.2l16,16
		c1.6,1.6,6.4,1.6,9.6,0c1.6-1.6,1.6-6.4,0-9.6l-16-16c-1.6-1.6,0-6.4,0-9.6c0-12.8-9.6-22.4-22.4-22.4c-12.8,0-22.4,9.6-22.4,22.4
		c0,4.8,1.6,8,3.2,11.2l-16,16C50.8,57.1,50.8,60.3,52.4,63.5z M87.5,20.4c4.8,0,8,3.2,8,8s-3.2,8-8,8c-3.2,0-8-4.8-8-8
		C79.6,23.6,84.3,20.4,87.5,20.4z"/>
	<path class="ag-st0" d="M146.7,109.8c12.8,0,22.4-9.6,22.4-22.4s-9.6-22.4-22.4-22.4c-12.8,0-22.4,9.6-22.4,22.4
		S133.9,109.8,146.7,109.8z M146.7,79.5c4.8,0,8,3.2,8,8c0,3.2-4.8,6.4-8,6.4c-4.8,0-8-3.2-8-8C138.7,82.7,141.9,79.5,146.7,79.5z"
		/>
</g>
</svg>
