<?xml version="1.0" encoding="utf-8"?>
<!-- Generator: Adobe Illustrator 23.0.3, SVG Export Plug-In . SVG Version: 6.00 Build 0)  -->
<svg version="1.1" id="Layer_1" xmlns="http://www.w3.org/2000/svg" xmlns:xlink="http://www.w3.org/1999/xlink" x="0px" y="0px"
	 viewBox="0 0 11.2 12.4" style="enable-background:new 0 0 11.2 12.4;" xml:space="preserve">
<style type="text/css">
	.delp-st0{fill:none;}
	.delp-st1{fill:#EA528E;}
</style>
<g>
	<defs>
		<rect id="SVGID_1_" x="-986.2" y="-830.1" width="1530" height="1495"/>
	</defs>
	<clipPath id="SVGID_2_">
		<use xlink:href="#SVGID_1_"  style="overflow:visible;"/>
	</clipPath>
</g>
<rect x="-994.1" y="-855.2" class="delp-st0" width="1530" height="1495"/>
<rect x="-995.7" y="-855.2" class="delp-st0" width="1530" height="1495"/>
<rect x="-997.6" y="-855.2" class="delp-st0" width="1530" height="1495"/>
<polygon class="delp-st1" points="6.9,9.8 6.9,9.7 6.9,4.2 6.9,4.1 7.8,4.1 7.8,4.2 7.8,9.7 7.8,9.8 "/>
<polygon class="delp-st1" points="5.1,9.8 5.1,9.7 5.1,4.2 5.1,4.1 6,4.1 6,4.2 6,9.7 6,9.8 "/>
<polygon class="delp-st1" points="3.4,9.8 3.4,9.7 3.4,4.2 3.4,4.1 4.2,4.1 4.2,4.2 4.2,9.7 4.2,9.8 "/>
<path class="delp-st1" d="M3.3,11.9c-0.7,0-1.2-0.5-1.3-1.2L1.5,2.9H0.4V2.7V2.1V2h2.9V1.5c0-0.5,0.4-1,1-1h2.4c0.5,0,1,0.4,1,1V2h2.9
	v0.1v0.6v0.1H9.6l-0.5,7.9c0,0.7-0.6,1.2-1.3,1.2H3.3z M2.9,10.7c0,0.2,0.2,0.4,0.4,0.4h4.5c0.2,0,0.4-0.2,0.4-0.4l0.5-7.8H2.4
	L2.9,10.7z M6.9,2V1.5c0-0.1-0.1-0.1-0.1-0.1H4.3c-0.1,0-0.1,0.1-0.1,0.1V2H6.9z"/>
</svg>
